<svg
    xmlns="http://www.w3.org/2000/svg"
    version="1.1"
    viewBox="0.00 0.00 573.00 405.00"
>
    <path
        fill="#ffffff"
        d="
M 440.43 219.69
Q 440.25 220.67 439.63 221.22
Q 439.27 221.53 439.01 221.13
C 436.33 216.94 432.83 213.26 427.92 212.10
Q 414.79 209.01 406.59 219.07
Q 404.52 221.61 403.79 224.83
Q 402.25 231.54 404.49 239.33
Q 405.06 241.30 406.80 242.68
Q 410.20 245.38 414.65 250.37
Q 415.06 250.84 415.06 251.47
Q 415.08 279.70 415.08 295.25
Q 415.08 295.89 414.28 296.83
Q 413.69 297.53 412.97 297.98
Q 405.22 302.82 398.61 304.85
Q 388.11 308.08 383.67 309.03
Q 376.15 310.64 368.41 311.28
Q 366.24 311.46 366.24 309.27
Q 366.39 259.28 366.13 214.25
C 366.11 209.58 366.65 204.92 366.60 201.08
Q 366.57 199.06 367.82 197.29
Q 369.72 194.60 371.49 192.48
Q 372.72 191.01 373.49 186.99
Q 373.89 184.90 373.53 181.15
Q 373.30 178.65 373.28 175.33
Q 373.16 139.32 373.11 81.54
Q 373.11 81.14 373.39 80.86
L 381.20 73.04
A 2.30 2.30 0.0 0 0 381.87 71.52
Q 382.30 62.29 381.74 55.72
Q 381.22 49.56 376.23 45.76
C 372.38 42.84 370.34 40.95 365.72 40.99
Q 360.44 41.03 359.90 41.05
Q 356.03 41.20 354.27 42.23
Q 350.63 44.35 348.14 48.44
Q 346.71 50.78 346.77 53.53
Q 346.94 61.95 347.26 64.26
Q 347.59 66.58 349.30 69.49
Q 351.09 72.53 355.42 78.82
Q 355.84 79.42 358.02 80.09
Q 358.49 80.23 358.45 80.73
Q 358.41 81.26 358.39 82.50
Q 358.08 98.56 358.18 175.84
Q 358.18 179.12 357.29 180.47
Q 355.93 182.52 354.48 184.49
A 0.42 0.42 0.0 0 1 353.84 184.54
Q 349.25 180.00 345.91 174.52
Q 345.64 174.10 345.80 173.62
Q 348.29 165.83 348.25 160.50
Q 348.24 158.00 346.64 153.50
C 344.33 147.00 338.03 143.34 331.53 142.33
Q 325.59 141.41 321.02 144.43
Q 316.56 147.38 314.46 150.14
Q 311.80 153.63 311.18 157.91
Q 309.95 166.37 316.26 173.08
Q 319.76 176.81 324.01 179.43
C 326.19 180.77 327.87 180.79 330.18 180.57
Q 330.73 180.52 331.09 180.94
Q 335.74 186.36 343.49 194.42
Q 345.20 196.20 348.18 198.36
C 349.47 199.29 350.44 201.41 350.55 203.26
Q 350.87 208.23 350.84 212.01
Q 350.49 254.94 350.43 311.35
A 0.91 0.91 0.0 0 1 349.67 312.25
Q 330.66 315.64 312.32 311.93
Q 308.28 311.11 305.70 309.16
Q 300.49 305.22 297.35 300.48
Q 295.61 297.86 292.78 291.72
Q 289.97 285.62 284.65 278.81
Q 279.49 272.21 271.17 270.71
Q 268.62 270.25 267.54 270.05
Q 265.35 269.65 263.91 269.64
Q 213.20 269.14 166.61 269.62
Q 163.99 269.64 161.43 269.99
Q 158.07 270.44 156.29 270.77
C 152.73 271.44 147.17 273.56 144.92 276.63
Q 143.98 277.93 142.77 278.89
Q 141.57 279.86 139.78 282.11
C 138.44 283.81 137.28 285.23 136.37 286.89
Q 132.24 294.39 125.27 302.62
C 122.03 306.44 118.04 308.38 113.77 311.49
Q 110.73 313.71 105.99 316.00
C 101.17 318.32 99.05 319.44 95.01 320.78
Q 77.09 326.70 57.28 322.85
Q 47.18 320.88 39.89 315.36
Q 39.05 314.72 33.54 308.49
Q 29.99 304.47 27.89 300.84
Q 22.46 291.44 20.21 285.81
Q 15.13 273.16 17.14 258.60
Q 17.79 253.86 20.50 247.44
C 23.13 241.21 26.28 235.57 27.89 229.32
Q 28.69 226.22 28.72 221.57
Q 28.79 211.39 28.86 201.63
Q 28.89 197.74 31.46 190.74
Q 33.39 185.49 38.69 178.32
Q 41.48 174.56 46.42 170.82
Q 53.68 165.34 55.10 164.34
Q 57.57 162.59 59.76 160.52
Q 68.42 152.32 70.72 145.21
C 74.21 134.40 75.44 128.82 79.80 121.57
Q 82.24 117.54 86.59 114.25
Q 95.35 107.63 104.32 103.34
Q 106.60 102.25 113.74 99.34
Q 114.20 99.15 114.41 98.70
Q 119.99 86.83 124.01 81.76
Q 135.51 67.26 152.78 62.80
Q 157.92 61.48 177.15 56.94
Q 179.81 56.31 185.45 53.84
C 192.46 50.78 200.32 45.74 205.88 42.88
Q 215.95 37.69 226.66 35.16
Q 231.31 34.06 243.37 32.90
Q 252.50 32.03 260.16 30.87
Q 262.20 30.57 270.76 30.72
Q 276.69 30.82 281.24 31.79
Q 283.61 32.29 288.58 33.07
Q 292.24 33.64 296.00 33.13
Q 307.33 31.62 317.12 28.35
Q 321.14 27.01 336.51 26.15
Q 352.62 25.25 366.04 30.41
Q 367.05 30.79 370.10 32.79
Q 371.75 33.87 374.11 34.70
Q 382.16 37.50 390.81 40.93
C 393.09 41.83 396.70 43.08 400.18 43.25
Q 409.26 43.70 417.96 45.16
Q 428.36 46.91 435.30 50.44
Q 448.52 57.18 458.35 66.68
Q 461.47 69.70 463.91 73.08
Q 465.87 75.79 467.53 77.67
Q 470.03 80.49 471.63 82.55
Q 472.42 83.56 479.32 89.34
Q 481.58 91.23 487.40 94.25
Q 496.34 98.89 501.96 102.99
Q 505.41 105.52 512.69 112.52
Q 516.64 116.33 520.13 121.58
Q 525.51 129.66 526.37 131.38
Q 528.93 136.54 530.36 138.39
Q 535.92 145.61 541.51 151.31
Q 544.09 153.93 546.27 156.87
Q 546.85 157.65 550.54 162.10
Q 554.96 167.44 557.15 173.60
Q 557.86 175.59 559.13 179.86
Q 560.05 182.95 560.41 186.34
Q 562.01 201.31 556.56 215.14
Q 553.78 222.21 548.59 227.84
Q 547.15 229.41 542.44 234.41
Q 540.34 236.63 538.24 237.66
C 536.18 238.67 534.57 240.37 532.29 241.80
Q 528.35 244.28 525.03 246.67
C 523.39 247.86 521.21 248.22 519.35 249.30
Q 509.08 255.28 497.42 257.89
Q 492.26 259.04 485.60 259.99
Q 478.28 261.04 473.87 262.27
Q 464.42 264.89 458.89 266.85
Q 450.46 269.85 441.58 275.02
Q 433.07 279.97 431.28 281.11
Q 430.12 281.85 430.12 280.48
L 430.12 250.76
A 1.51 1.50 71.8 0 1 430.73 249.55
Q 436.82 245.15 439.56 238.52
C 440.67 235.81 440.56 232.20 440.62 229.17
Q 440.63 228.78 441.01 228.81
L 441.26 228.82
Q 441.36 228.83 441.35 228.93
Q 441.12 231.20 443.30 231.36
Q 448.85 231.76 452.51 227.68
Q 455.42 224.44 457.41 220.10
A 3.66 3.63 -32.4 0 0 457.75 218.61
L 458.15 162.56
Q 458.16 161.88 458.74 161.54
Q 462.18 159.52 464.64 156.13
Q 473.45 144.03 465.52 130.99
Q 464.20 128.82 462.37 127.51
C 458.46 124.73 452.80 122.33 448.01 123.18
C 444.68 123.78 441.08 124.81 437.92 126.90
Q 434.83 128.96 433.00 132.27
Q 428.89 139.76 431.14 148.82
Q 432.15 152.89 434.28 155.22
Q 437.28 158.49 441.15 161.03
A 1.94 1.68 19.1 0 1 442.03 162.55
L 441.92 219.12
Q 441.92 219.53 441.25 219.57
Q 441.06 219.59 440.90 219.39
Q 440.57 218.97 440.43 219.69
Z
M 252.41 110.45
Q 260.00 103.92 261.35 101.61
C 264.74 95.79 263.84 86.76 261.01 81.17
Q 258.85 76.88 255.02 74.55
Q 251.21 72.24 246.03 72.21
Q 237.73 72.15 231.94 76.69
Q 229.77 78.38 228.17 81.32
Q 226.00 85.27 225.64 86.88
Q 224.05 94.06 228.62 101.62
Q 231.82 106.91 235.94 110.84
A 2.37 2.35 21.8 0 1 236.67 112.52
Q 236.82 129.32 237.02 145.73
Q 237.09 151.89 236.96 165.72
Q 236.86 175.82 237.12 185.91
Q 237.15 187.03 237.86 193.54
Q 238.28 197.39 237.82 201.25
Q 237.13 207.14 237.11 207.33
Q 236.96 209.37 236.64 213.45
Q 236.45 215.89 235.35 217.27
Q 234.79 217.98 232.39 221.07
Q 232.09 221.46 231.61 221.61
Q 229.82 222.19 227.69 222.78
Q 225.59 223.37 223.25 223.35
Q 197.12 223.06 140.33 223.14
Q 138.64 223.14 138.49 221.45
Q 138.44 220.87 137.74 219.61
Q 137.38 218.95 136.45 218.16
C 134.03 216.11 133.36 214.71 133.36 211.33
Q 133.36 180.02 133.23 164.77
Q 133.15 154.35 133.44 145.11
Q 133.46 144.59 133.90 144.34
Q 143.82 138.64 144.34 127.44
Q 144.84 116.56 136.85 110.12
Q 134.05 107.87 130.93 107.13
Q 122.48 105.12 115.29 109.51
C 105.76 115.34 104.00 127.39 109.24 136.62
Q 110.70 139.19 115.83 143.73
C 117.25 144.98 117.45 145.89 117.46 147.75
Q 117.57 176.06 117.47 208.94
Q 117.46 212.22 117.78 214.55
Q 118.29 218.23 119.23 220.06
Q 119.82 221.22 122.83 226.74
Q 123.98 228.84 128.93 232.04
Q 134.33 235.52 140.27 237.16
Q 144.70 238.39 150.73 238.37
Q 207.98 238.19 216.64 238.16
C 220.72 238.15 224.94 237.80 229.08 237.56
C 230.82 237.46 233.20 236.85 234.50 236.25
Q 236.82 235.16 244.24 229.50
Q 245.60 228.47 247.15 225.51
Q 248.21 223.49 249.41 222.49
Q 251.03 221.16 252.22 219.74
Q 252.56 219.34 252.57 218.81
Q 252.97 168.08 252.90 124.26
Q 252.89 115.87 252.11 111.28
Q 252.03 110.78 252.41 110.45
Z"
    ></path>
    <path
        style="opacity: 0.8"
        fill="#ffffff"
        d="
M 163.31 352.65
A 1.26 1.26 0.0 0 0 163.17 351.15
Q 158.27 345.71 152.17 342.94
Q 147.24 340.70 145.69 339.78
C 142.10 337.64 139.95 336.78 137.10 334.40
Q 134.96 332.61 131.46 331.00
C 128.43 329.61 126.37 327.94 124.02 325.95
Q 123.26 325.30 121.23 326.04
Q 119.65 326.61 119.01 324.91
L 118.87 324.53
Q 118.19 322.75 119.88 321.81
Q 126.41 318.12 128.72 316.88
Q 133.52 314.31 136.86 310.96
Q 140.65 307.14 143.47 302.56
Q 148.29 294.74 148.60 294.33
Q 151.74 290.12 155.71 286.46
Q 157.12 285.15 159.47 284.29
Q 161.16 283.68 163.65 283.68
Q 212.09 283.82 265.50 283.69
Q 267.35 283.68 271.41 286.79
Q 275.12 289.63 277.48 293.59
Q 279.81 297.51 288.43 313.57
C 292.49 321.13 306.49 324.77 314.60 325.58
A 0.73 0.73 0.0 0 1 315.24 326.46
Q 314.16 331.69 311.59 335.38
Q 305.03 344.82 302.24 348.24
Q 301.03 349.73 298.94 351.63
C 296.14 354.17 294.08 357.90 291.65 360.16
Q 288.96 362.67 286.16 365.64
Q 283.42 368.55 282.45 369.30
Q 280.40 370.88 278.81 372.96
C 276.43 376.08 272.24 379.55 269.80 382.09
Q 266.17 385.86 258.01 394.13
A 2.42 2.41 -67.7 0 1 256.29 394.85
L 128.75 394.85
Q 127.97 394.85 128.25 394.12
C 129.13 391.83 130.08 389.89 132.44 388.10
Q 135.00 386.17 137.05 384.10
Q 140.60 380.51 141.34 379.80
Q 154.63 367.02 163.31 352.65
Z"
    ></path>
</svg>
